<svg width="1009" height="293" viewBox="0 0 1009 293" fill="none" xmlns="http://www.w3.org/2000/svg">
<path d="M190.121 81.516V50.7703C156.379 50.7691 124.016 64.1761 100.142 88.0462C76.2675 111.916 62.8346 144.297 62.794 178.076H93.4882C93.595 124.82 136.899 81.516 190.121 81.516Z" fill="#F27D42"/>
<path d="M121.267 59.3641L114.558 32.9037C84.5756 48.5612 60.1543 73.1044 44.631 103.18L71.0955 109.608L71.1605 109.715C83.1864 88.8408 100.461 71.482 121.267 59.3641Z" fill="#F27D42"/>
<path d="M196.953 259.336C185.386 259.336 174.635 257.334 164.699 253.33C154.764 249.178 146.014 243.468 138.451 236.202C130.888 228.787 124.957 220.26 120.656 210.621C116.504 200.834 114.428 190.305 114.428 179.035C114.428 167.764 116.504 157.31 120.656 147.671C124.957 137.883 130.814 129.356 138.229 122.09C145.644 114.675 154.319 108.966 164.255 104.962C174.339 100.81 185.09 98.7337 196.508 98.7337C209.41 98.7337 221.57 101.329 232.989 106.519C244.407 111.561 253.824 118.679 261.239 127.873L238.772 148.56C233.434 141.887 227.131 136.845 219.865 133.434C212.598 130.024 204.813 128.318 196.508 128.318C189.539 128.318 183.088 129.653 177.156 132.322C171.224 134.843 166.034 138.402 161.585 142.999C157.136 147.448 153.652 152.787 151.131 159.015C148.758 165.095 147.572 171.768 147.572 179.035C147.572 186.301 148.832 193.048 151.353 199.277C153.874 205.505 157.359 210.918 161.808 215.515C166.405 219.964 171.669 223.523 177.601 226.192C183.681 228.713 190.28 229.974 197.398 229.974C204.813 229.974 211.486 228.639 217.418 225.97C223.35 223.152 228.317 219.296 232.321 214.403C236.474 209.361 239.217 203.726 240.552 197.497H194.506V169.47H275.03V179.257C275.03 190.824 273.028 201.501 269.024 211.289C265.168 220.928 259.756 229.38 252.786 236.647C245.816 243.765 237.586 249.326 228.095 253.33C218.604 257.334 208.224 259.336 196.953 259.336Z" fill="#022449"/>
<path d="M339.97 259.113C331.073 259.113 323.139 257.185 316.169 253.33C309.348 249.326 303.935 243.839 299.931 236.869C296.075 229.899 294.148 221.892 294.148 212.846V140.997H324.622V208.397C324.622 215.812 326.772 221.743 331.073 226.192C335.521 230.641 341.453 232.865 348.868 232.865C353.91 232.865 358.433 231.901 362.437 229.974C366.589 227.897 370 225.006 372.669 221.298V140.997H403.143V256.889H372.669V247.546C363.771 255.258 352.872 259.113 339.97 259.113Z" fill="#022449"/>
<path d="M483.616 259.113C472.049 259.113 461.521 256.444 452.03 251.105C442.687 245.767 435.273 238.575 429.786 229.529C424.299 220.483 421.556 210.325 421.556 199.054C421.556 187.784 424.151 177.626 429.341 168.58C434.68 159.534 441.872 152.342 450.918 147.003C459.964 141.665 470.048 138.995 481.17 138.995C492.292 138.995 502.153 141.739 510.754 147.226C519.355 152.713 526.103 160.127 530.996 169.47C536.038 178.812 538.559 189.415 538.559 201.279V209.287H452.697C454.032 213.884 456.182 218.036 459.148 221.743C462.262 225.451 466.044 228.342 470.492 230.418C475.09 232.495 479.983 233.533 485.173 233.533C490.364 233.533 495.109 232.717 499.41 231.086C503.858 229.455 507.64 227.156 510.754 224.19L530.774 242.43C523.656 248.214 516.315 252.44 508.752 255.109C501.337 257.779 492.959 259.113 483.616 259.113ZM452.252 187.487H508.53C507.492 182.89 505.564 178.886 502.746 175.476C500.077 171.917 496.815 169.173 492.959 167.245C489.252 165.169 485.099 164.131 480.502 164.131C475.757 164.131 471.456 165.095 467.601 167.023C463.745 168.951 460.483 171.694 457.813 175.253C455.292 178.664 453.439 182.742 452.252 187.487Z" fill="#022449"/>
<path d="M601.692 259.113C591.015 259.113 581.154 257.779 572.108 255.109C563.062 252.292 555.202 248.288 548.529 243.098L563.655 222.855C570.328 227.304 576.705 230.641 582.785 232.865C589.013 235.09 595.167 236.202 601.247 236.202C608.069 236.202 613.482 235.09 617.486 232.865C621.638 230.493 623.714 227.453 623.714 223.745C623.714 220.779 622.528 218.407 620.155 216.627C617.93 214.848 614.297 213.587 609.255 212.846L587.011 209.509C575.444 207.73 566.695 204.022 560.763 198.387C554.832 192.604 551.866 185.041 551.866 175.698C551.866 168.135 553.793 161.684 557.649 156.346C561.653 150.859 567.214 146.633 574.332 143.667C581.599 140.553 590.2 138.995 600.135 138.995C608.588 138.995 616.818 140.182 624.826 142.554C632.982 144.927 640.619 148.56 647.737 153.454L633.056 173.251C626.68 169.247 620.6 166.356 614.816 164.576C609.033 162.797 603.175 161.907 597.243 161.907C591.757 161.907 587.308 162.945 583.897 165.021C580.635 167.097 579.003 169.84 579.003 173.251C579.003 176.365 580.19 178.812 582.562 180.592C584.935 182.371 589.013 183.632 594.797 184.373L616.818 187.71C628.385 189.341 637.209 193.048 643.289 198.832C649.369 204.467 652.409 211.808 652.409 220.853C652.409 228.268 650.184 234.867 645.735 240.651C641.287 246.286 635.281 250.809 627.718 254.22C620.155 257.482 611.48 259.113 601.692 259.113Z" fill="#022449"/>
<path d="M720.352 258.668C707.451 258.668 697.663 255.777 690.99 249.993C684.465 244.061 681.203 235.46 681.203 224.19V166.356H657.401V140.997H681.203V111.413L711.677 104.517V140.997H744.821V166.356H711.677V217.962C711.677 223.3 712.863 227.156 715.236 229.529C717.609 231.753 721.761 232.865 727.693 232.865C730.659 232.865 733.328 232.717 735.7 232.42C738.221 231.976 740.965 231.234 743.931 230.196V255.332C740.817 256.37 736.887 257.185 732.141 257.779C727.544 258.372 723.615 258.668 720.352 258.668Z" fill="#022449"/>
<path d="M759.686 256.889V140.997H790.16V153.899C793.867 148.857 798.316 145.001 803.507 142.332C808.697 139.663 814.554 138.328 821.079 138.328C826.715 138.476 830.941 139.366 833.758 140.997V167.69C831.534 166.652 829.087 165.911 826.418 165.466C823.749 164.873 821.005 164.576 818.188 164.576C812.256 164.576 806.843 166.059 801.949 169.025C797.056 171.991 793.126 176.217 790.16 181.704V256.889H759.686Z" fill="#022449"/>
<path d="M902.425 259.113C890.858 259.113 880.403 256.444 871.061 251.105C861.718 245.767 854.303 238.575 848.817 229.529C843.33 220.483 840.586 210.325 840.586 199.054C840.586 187.784 843.256 177.626 848.594 168.58C854.081 159.386 861.496 152.119 870.838 146.781C880.329 141.442 890.858 138.773 902.425 138.773C913.992 138.773 924.446 141.442 933.789 146.781C943.28 152.119 950.694 159.386 956.033 168.58C961.52 177.626 964.263 187.784 964.263 199.054C964.263 210.325 961.52 220.483 956.033 229.529C950.694 238.575 943.354 245.767 934.011 251.105C924.669 256.444 914.14 259.113 902.425 259.113ZM902.425 232.643C908.505 232.643 913.917 231.16 918.663 228.194C923.557 225.228 927.412 221.224 930.23 216.182C933.196 210.992 934.679 205.283 934.679 199.054C934.679 192.678 933.196 186.968 930.23 181.926C927.412 176.884 923.557 172.881 918.663 169.915C913.917 166.8 908.505 165.243 902.425 165.243C896.493 165.243 891.08 166.8 886.187 169.915C881.293 172.881 877.437 176.884 874.62 181.926C871.802 186.968 870.393 192.678 870.393 199.054C870.393 205.283 871.802 210.992 874.62 216.182C877.437 221.224 881.293 225.228 886.187 228.194C891.08 231.16 896.493 232.643 902.425 232.643Z" fill="#022449"/>
</svg>
