<svg width="938" height="215" viewBox="0 0 938 215" fill="none" xmlns="http://www.w3.org/2000/svg">
<path d="M289.377 90.0616C288.055 90.0422 286.736 90.216 285.465 90.5776C284.434 90.8843 283.474 91.3889 282.638 92.0629C281.895 92.6805 281.311 93.4658 280.934 94.3536C280.537 95.2844 280.339 96.2875 280.353 97.2988C280.351 98.0609 280.457 98.8195 280.669 99.5518C280.93 100.399 281.383 101.174 281.994 101.817C282.865 102.745 283.858 103.549 284.947 104.209C286.61 105.221 288.348 106.105 290.147 106.852C292.671 108.01 294.791 109.092 296.533 110.099C298.091 110.965 299.522 112.041 300.786 113.296C301.84 114.368 302.645 115.657 303.146 117.072C303.67 118.698 303.918 120.4 303.878 122.107C303.867 123.631 303.563 125.14 302.982 126.55C302.362 128.048 301.438 129.402 300.268 130.527C298.958 131.766 297.414 132.733 295.725 133.372C293.678 134.143 291.501 134.514 289.314 134.467C287.006 134.514 284.702 134.26 282.461 133.712C280.867 133.325 279.354 132.661 277.993 131.748C276.965 131.064 276.131 130.128 275.57 129.029C275.085 128.078 274.83 127.026 274.825 125.958C274.82 125.312 274.923 124.67 275.128 124.058C275.332 123.491 275.645 122.969 276.05 122.522C276.46 122.071 276.964 121.714 277.526 121.477C278.155 121.207 278.835 121.074 279.52 121.087C280.156 121.083 280.786 121.202 281.375 121.44C281.904 121.658 282.381 121.984 282.776 122.396C283.167 122.806 283.471 123.29 283.672 123.819C283.9 124.382 284.011 124.986 284.001 125.593C284.046 126.202 283.956 126.812 283.738 127.382C283.52 127.952 283.179 128.467 282.738 128.891C281.819 129.651 280.65 130.045 279.457 129.999V130.124C279.718 130.38 280.006 130.608 280.315 130.804C280.867 131.158 281.455 131.454 282.07 131.685C282.976 132.017 283.909 132.269 284.859 132.44C286.144 132.679 287.451 132.789 288.759 132.768C290.007 132.766 291.251 132.601 292.456 132.277C293.614 131.977 294.717 131.497 295.725 130.854C296.65 130.271 297.445 129.504 298.06 128.601C298.66 127.719 298.973 126.673 298.956 125.606C298.968 124.691 298.792 123.782 298.438 122.938C297.97 121.965 297.293 121.105 296.457 120.42C295.206 119.374 293.853 118.454 292.418 117.676C290.736 116.695 288.498 115.587 285.704 114.354C283.901 113.636 282.203 112.679 280.656 111.509C279.455 110.582 278.411 109.468 277.564 108.211C276.831 107.101 276.301 105.869 275.999 104.574C275.716 103.292 275.572 101.984 275.57 100.672C275.563 99.036 275.88 97.4148 276.504 95.9017C277.11 94.4133 278.026 93.0704 279.192 91.9622C280.443 90.7919 281.92 89.8882 283.534 89.3064C285.415 88.6123 287.409 88.2751 289.415 88.3121C291.293 88.2803 293.165 88.5307 294.968 89.0547C296.376 89.4619 297.698 90.1231 298.868 91.0056C299.852 91.7617 300.647 92.7355 301.19 93.8501C301.7 94.9016 301.963 96.0552 301.96 97.2233C301.962 97.8278 301.859 98.4282 301.657 98.998C301.464 99.5458 301.159 100.047 300.761 100.471C300.353 100.907 299.859 101.254 299.309 101.49C298.683 101.756 298.008 101.889 297.328 101.88C296.693 101.889 296.063 101.774 295.473 101.54C294.938 101.325 294.449 101.009 294.034 100.609C293.632 100.217 293.319 99.7456 293.113 99.2246C292.89 98.6638 292.779 98.0654 292.784 97.4625C292.775 96.8025 292.9 96.1476 293.15 95.5367C293.387 95.0033 293.731 94.5236 294.16 94.127C294.598 93.7416 295.109 93.4464 295.662 93.2586C296.261 93.0638 296.887 92.9661 297.517 92.9691V92.8432C297.281 92.5995 297.033 92.3684 296.773 92.151C296.302 91.7678 295.785 91.4463 295.233 91.1944C294.446 90.8378 293.626 90.5595 292.784 90.3637C291.665 90.1285 290.521 90.0271 289.377 90.0616Z" fill="#39312A"/>
<path d="M346.598 112.214C346.596 109.945 346.841 107.683 347.33 105.467C347.84 103.226 348.637 101.06 349.703 99.0229C350.742 97.0145 352.078 95.1731 353.666 93.5604C355.332 91.9262 357.311 90.6422 359.484 89.7845C361.89 88.8208 364.463 88.3375 367.056 88.3622C370.103 88.3102 373.085 89.2369 375.562 91.0053C376.657 91.6606 377.567 92.5811 378.21 93.6814C378.852 94.7816 379.204 96.0259 379.235 97.2986C379.258 98.4481 378.843 99.5635 378.074 100.42C377.669 100.847 377.176 101.181 376.629 101.398C376.082 101.615 375.494 101.711 374.906 101.679C374.328 101.691 373.754 101.586 373.218 101.37C372.682 101.153 372.195 100.83 371.789 100.42C371.381 100.036 371.059 99.5706 370.842 99.0548C370.624 98.539 370.517 97.9838 370.527 97.4245C370.499 96.3102 370.911 95.2296 371.675 94.4163C372.032 94.0181 372.47 93.7 372.96 93.483C373.449 93.2661 373.979 93.1552 374.515 93.1576C374.679 93.1398 374.844 93.1398 375.007 93.1576V93.0318C374.355 92.1693 373.483 91.4959 372.483 91.0809C370.959 90.3284 369.273 89.961 367.574 90.011C363.821 90.011 360.742 91.9535 358.335 95.8386C355.929 99.7236 354.722 104.846 354.713 111.207C354.702 113.808 354.939 116.404 355.42 118.96C355.852 121.253 356.564 123.485 357.54 125.606C358.381 127.484 359.683 129.12 361.326 130.363C362.892 131.54 364.806 132.165 366.766 132.138C369.543 132.19 372.25 131.268 374.414 129.533C376.617 127.753 378.35 125.463 379.462 122.862L380.914 123.541C377.96 130.783 373.005 134.399 366.047 134.391C363.314 134.434 360.595 134.008 358.007 133.132C355.912 132.423 353.99 131.283 352.366 129.784C350.894 128.337 349.704 126.63 348.857 124.75C347.968 122.841 347.339 120.822 346.989 118.746C346.682 116.583 346.551 114.398 346.598 112.214Z" fill="#39312A"/>
<path d="M421.364 132.352V130.93L426.122 130.615V90.0867L421.364 89.7846V88.3623H438.793V89.7846L434.035 90.0867V108.866L450.657 108.614V90.0867L445.899 89.7846V88.3623H463.328V89.7846L458.57 90.0867V130.615L463.328 130.93V132.352H445.899V130.93L450.657 130.615V110.716H434.035V130.615L438.793 130.93V132.352H421.364Z" fill="#39312A"/>
<path d="M502.099 90.4265V89.0168H519.3V90.4265L515.098 90.7412L523.314 121.503H523.44L532.994 88.3623H534.382L545.513 121.377H545.627L554.461 90.7412L550.284 90.4265V89.0168H560.078V90.4265L556.291 90.7412L543.747 133.611H542.358L531 101.465L521.534 133.611H520.146L506.768 90.7412L502.099 90.4265Z" fill="#39312A"/>
<path d="M599.515 132.352V130.93L604.273 130.615V90.0867L599.515 89.7846V88.3623H629.956L630.271 100.949H629.009C628.807 99.7484 628.541 98.5594 628.214 97.3868C627.923 96.3664 627.525 95.3792 627.028 94.4416C626.585 93.5473 625.972 92.7477 625.223 92.0879C624.435 91.4442 623.531 90.9572 622.56 90.653C621.337 90.2618 620.058 90.0747 618.774 90.0992C617.024 90.0992 614.828 90.1999 612.186 90.4013V108.677C612.804 108.677 613.927 108.765 615.555 108.765C616.396 108.85 617.246 108.752 618.046 108.478C618.845 108.204 619.576 107.761 620.187 107.179C621.121 106.122 621.588 104.196 621.588 101.402H623.279V117.903H621.588C621.588 115.109 621.121 113.158 620.175 112.063C619.574 111.466 618.848 111.009 618.05 110.724C617.251 110.439 616.4 110.333 615.555 110.414C613.965 110.414 612.842 110.414 612.186 110.502V130.288C614.823 130.502 617.449 130.603 620.036 130.603C621.116 130.613 622.194 130.516 623.254 130.313C624.112 130.139 624.929 129.806 625.665 129.331C627.035 128.46 628.081 127.164 628.643 125.643C628.998 124.779 629.293 123.892 629.526 122.988C629.754 122.107 629.993 121.012 630.233 119.715H631.621L631.281 132.302L599.515 132.352Z" fill="#39312A"/>
<path d="M674.254 132.352V130.93L679.012 130.615V90.0867L674.254 89.7846V88.3623H691.683V89.7846L686.925 90.0867V130.615L691.683 130.93V132.352H674.254Z" fill="#39312A"/>
<path d="M734.215 102.799L735.174 88.3372H763.861V89.9734L742.507 130.754L754.282 130.93H754.395C755.541 130.931 756.67 130.645 757.677 130.099C758.664 129.55 759.524 128.8 760.201 127.896C760.943 126.856 761.534 125.716 761.955 124.511C762.444 123.194 762.836 121.844 763.129 120.47C763.406 119.212 763.646 117.651 763.861 115.99H765.249L764.29 132.352H734.316V130.653L756.78 89.8727L746.368 90.0615C744.985 89.9915 743.604 90.2401 742.333 90.7879C741.061 91.3358 739.933 92.1682 739.036 93.2207C737.408 95.2597 736.272 98.4693 735.616 102.824L734.215 102.799Z" fill="#39312A"/>
<path d="M807.565 132.352V130.93L812.323 130.615V90.0867L807.565 89.7846V88.3623H838.006L838.322 100.949H837.06C836.807 99.5517 836.542 98.4315 836.265 97.3868C835.974 96.3664 835.576 95.3792 835.078 94.4416C834.636 93.5473 834.023 92.7477 833.274 92.0879C832.486 91.4442 831.582 90.9572 830.611 90.653C829.388 90.2618 828.108 90.0747 826.824 90.0992C825.074 90.0992 822.878 90.1999 820.237 90.4013V108.677C820.855 108.677 821.978 108.765 823.606 108.765C824.447 108.849 825.297 108.751 826.096 108.477C826.895 108.203 827.626 107.76 828.238 107.179C829.172 106.122 829.639 104.196 829.639 101.402H831.33V117.903H829.639C829.639 115.109 829.159 113.158 828.225 112.063C827.624 111.466 826.899 111.009 826.1 110.724C825.302 110.439 824.45 110.333 823.606 110.414C822.016 110.414 820.893 110.414 820.237 110.502V130.288C822.87 130.498 825.487 130.603 828.087 130.603C829.166 130.613 830.244 130.516 831.305 130.313C832.163 130.139 832.98 129.806 833.715 129.331C834.364 128.912 834.947 128.399 835.444 127.808C835.974 127.156 836.4 126.426 836.706 125.643C837.061 124.779 837.356 123.892 837.59 122.988C837.817 122.107 838.057 121.012 838.297 119.715H839.634L839.294 132.302L807.565 132.352Z" fill="#39312A"/>
<path d="M882.304 132.352V130.93L887.062 130.615V90.0866L882.304 89.7845V88.3622H898.711C900.791 88.3442 902.868 88.5425 904.907 88.9538C906.645 89.3035 908.315 89.9281 909.855 90.804C911.268 91.6086 912.433 92.7839 913.224 94.2023C914.042 95.7527 914.451 97.4855 914.411 99.2369C914.495 100.787 914.218 102.335 913.603 103.761C912.988 105.187 912.051 106.451 910.864 107.456C908.072 109.58 904.742 110.887 901.247 111.232C902.784 111.22 904.309 111.502 905.74 112.063C906.892 112.511 907.927 113.212 908.769 114.114C909.626 115.09 910.352 116.173 910.927 117.336C911.369 118.243 912.013 119.614 912.858 121.477C913.613 123.169 914.455 124.82 915.382 126.424C915.918 127.47 916.627 128.418 917.477 129.231C918 129.737 918.617 130.135 919.295 130.401C919.85 130.55 920.423 130.622 920.999 130.615V132.314H915.862C914.622 132.343 913.383 132.242 912.164 132.012C911.159 131.775 910.227 131.295 909.451 130.615C908.462 129.757 907.651 128.713 907.065 127.544C906.359 126.243 905.16 123.516 903.469 119.363C903.229 118.746 902.875 117.953 902.408 116.971C902.039 116.205 901.618 115.465 901.146 114.756C900.759 114.202 900.337 113.672 899.884 113.17C899.501 112.677 899.014 112.273 898.458 111.987C897.985 111.747 897.462 111.622 896.931 111.622C896.022 111.622 895.341 111.622 894.861 111.622V130.502L899.619 130.816V132.239L882.304 132.352ZM894.924 109.935C895.152 109.935 895.568 109.935 896.186 109.935C899.863 109.935 902.446 109.046 903.935 107.267C905.425 105.488 906.169 102.828 906.169 99.2873C906.208 97.7568 905.995 96.2303 905.538 94.7687C905.205 93.6685 904.581 92.6776 903.734 91.899C902.979 91.2385 902.093 90.7452 901.134 90.4516C900.08 90.1498 898.987 90.0056 897.89 90.0236C896.897 90.0347 895.905 90.1188 894.924 90.2754V109.935Z" fill="#39312A"/>
<path d="M182.985 124.196C181.922 121.149 180.198 118.372 177.937 116.065C175.246 113.378 172.197 111.074 168.875 109.218C165.164 107.062 160.625 104.758 155.257 102.308C151.415 100.715 147.706 98.8209 144.164 96.6441C141.838 95.263 139.715 93.5689 137.854 91.6095C137.715 91.4459 137.626 91.2823 137.5 91.1187C139.082 90.7559 140.514 89.9166 141.602 88.7146C143.257 86.8935 144.159 84.5143 144.126 82.0564C144.101 79.9692 143.639 77.9102 142.77 76.0115C141.901 74.1127 140.643 72.4162 139.078 71.0306C139.166 70.9551 139.229 70.8544 139.33 70.7663C141.082 69.3126 143.107 68.2215 145.287 67.5567C147.996 66.7686 150.808 66.391 153.629 66.4365C156.086 66.3981 158.54 66.6516 160.937 67.1917C162.732 67.6033 164.479 68.2024 166.149 68.979C167.328 69.5193 168.434 70.2043 169.443 71.018C169.982 71.4812 170.492 71.9772 170.97 72.5032V72.7675C169.628 72.7606 168.293 72.9732 167.02 73.3969C165.841 73.7857 164.754 74.4111 163.827 75.2345C162.901 76.0801 162.169 77.1147 161.681 78.2678C161.132 79.5698 160.862 80.9715 160.886 82.3836C160.873 83.675 161.108 84.957 161.58 86.1596C162.028 87.2755 162.703 88.2868 163.562 89.13C164.446 89.9774 165.488 90.6444 166.628 91.0935C167.884 91.5956 169.226 91.8438 170.579 91.8235C172.026 91.8481 173.462 91.5694 174.794 91.0054C175.966 90.497 177.022 89.7561 177.899 88.8279C178.744 87.9062 179.392 86.8228 179.804 85.6435C180.244 84.4331 180.466 83.1549 180.461 81.8676C180.464 79.3711 179.904 76.9059 178.82 74.6555C177.662 72.2833 175.969 70.211 173.873 68.6014C171.374 66.7148 168.551 65.2987 165.543 64.4227C161.7 63.2991 157.709 62.7644 153.705 62.8368C149.428 62.7639 145.175 63.4808 141.16 64.9513C139.04 65.7493 137.023 66.7972 135.153 68.0728C130.095 64.7263 124.146 62.9723 118.077 63.0382C112.529 62.9753 107.023 64.0017 101.872 66.059C97.2406 67.8925 93.0259 70.6362 89.4788 74.1269C86.0747 77.5711 83.2189 81.5143 81.0104 85.8197C78.7271 90.1635 77.0297 94.7893 75.9622 99.5768C75.0124 103.677 74.5883 107.881 74.7001 112.088C74.5883 116.295 75.0124 120.498 75.9622 124.599C77.0318 129.386 78.7291 134.011 81.0104 138.356C83.2192 142.657 86.075 146.596 89.4788 150.036C93.0305 153.564 97.2642 156.334 101.923 158.179C107.071 160.247 112.578 161.278 118.128 161.213C123.255 161.269 128.315 160.04 132.843 157.638C134.782 158.542 136.796 159.275 138.863 159.828C143.652 160.997 148.574 161.538 153.503 161.439C158.175 161.524 162.819 160.712 167.184 159.048C170.781 157.678 174.071 155.612 176.864 152.969C179.363 150.572 181.328 147.677 182.631 144.473C183.879 141.462 184.53 138.24 184.55 134.983C184.626 131.326 184.097 127.681 182.985 124.196V124.196ZM132.288 132.793C130.829 132.769 129.381 133.048 128.035 133.611C126.833 134.127 125.753 134.891 124.867 135.851C124.002 136.808 123.341 137.93 122.923 139.149C122.475 140.448 122.253 141.815 122.267 143.189C122.447 145.601 123.155 147.944 124.341 150.054C125.527 152.163 127.163 153.987 129.133 155.398C126.069 156.775 122.737 157.454 119.377 157.387C111.384 157.387 104.817 153.237 99.6763 144.938C94.5355 136.64 91.9651 125.698 91.9651 112.113C91.9651 98.5027 94.5355 87.5525 99.6763 79.2622C104.817 70.9719 111.384 66.8225 119.377 66.8141C123.01 66.7107 126.612 67.5018 129.865 69.1175C130.736 69.5832 131.468 70.0237 132.149 70.4642L131.947 70.6278C129.465 72.9924 127.513 75.8533 126.217 79.023C124.901 82.2645 124.24 85.7336 124.274 89.2307C124.266 92.0338 124.575 94.8288 125.195 97.5629C125.832 100.319 126.947 102.943 128.489 105.316C130.286 108.007 132.511 110.388 135.077 112.365C138.361 114.862 141.964 116.911 145.792 118.457C151.681 121.091 156.456 123.453 160.116 125.543C163.174 127.208 166.057 129.172 168.723 131.408C170.504 132.872 171.943 134.706 172.939 136.782C173.693 138.58 174.075 140.511 174.062 142.459C174.088 144.735 173.419 146.965 172.144 148.853C170.833 150.781 169.141 152.421 167.171 153.674C165.012 155.039 162.653 156.062 160.179 156.707C157.611 157.395 154.964 157.747 152.304 157.752C149.512 157.789 146.722 157.558 143.975 157.059C141.953 156.687 139.968 156.14 138.043 155.423C137.639 155.272 137.323 155.108 136.97 154.957C141.703 151.32 143.773 147.066 143.773 142.182C143.813 139.727 142.91 137.349 141.248 135.536C140.396 134.609 139.349 133.88 138.182 133.401C137.015 132.923 135.757 132.706 134.496 132.767L132.288 132.793Z" fill="#39312A"/>
<path d="M68.7444 201.149C65.5262 200.142 61.7526 199.009 60.3517 198.632L57.8276 197.902L62.1186 197.159C64.4913 196.756 68.9716 195.901 72.0889 195.259C80.7844 193.496 89.4926 194 95.1214 196.631L96.6233 197.323L94.7428 199.009C89.7703 203.377 78.8409 204.283 68.7444 201.149ZM91.2595 193.673C84.9492 191.369 80.4689 186.121 78.0836 178.292C77.33 175.863 76.719 173.391 76.2536 170.891L75.8877 168.374L83.7629 176.328C91.8906 184.535 93.5439 187.002 94.0613 191.583C94.3137 194.189 93.771 194.604 91.2217 193.673H91.2595ZM58.7741 188.185C52.0347 186.045 50.2931 185.164 43.844 180.633C41.6586 179.172 39.5522 177.596 37.5337 175.913C38.4171 175.271 59.5061 177.612 61.3614 178.569L66.0815 180.935C68.2431 182.03 70.2822 183.351 72.1646 184.875L74.4489 186.926L72.3413 187.82C67.963 189.324 63.2273 189.451 58.7741 188.185V188.185ZM69.7414 180.759C66.0688 177.927 62.7622 173.106 61.9924 169.431C61.5201 165.818 61.3597 162.172 61.5128 158.531L61.6895 150.765L63.835 154.944C65.0087 157.247 66.6494 160.155 67.495 161.414C71.584 167.518 73.8684 175.8 72.7451 180.469L72.2151 182.672L69.7414 180.759ZM47.5797 169.305C45.6713 168.875 43.8109 168.255 42.0266 167.455C37.3703 164.591 33.2492 160.941 29.8478 156.668C28.4216 154.743 26.4654 152.276 25.4937 151.206C23.5122 149.016 23.6384 148.915 26.7557 150.123C28.5472 150.76 30.3818 151.269 32.2457 151.646C37.2565 152.985 41.9906 155.196 46.2293 158.179C49.5913 160.902 52.4599 164.18 54.7103 167.87C55.518 169.444 55.4928 169.582 54.5462 169.595C53.8038 169.619 53.0648 169.707 52.3376 169.859C50.7336 169.895 49.1323 169.709 47.5797 169.305V169.305ZM52.4765 161.753C50.8726 159.772 49.8426 157.391 49.498 154.869C49.0057 152.644 48.6893 150.384 48.5515 148.11C49.0288 142.536 50.1858 137.041 51.9969 131.747C53.1075 129.23 53.1327 129.23 53.1832 131.042C53.6916 134.463 54.3868 137.854 55.2656 141.2C56.3535 145.221 57.0384 149.34 57.3102 153.497C57.3102 157.373 56.0481 163.251 55.0132 163.88C54.7103 164.069 53.5997 163.138 52.4765 161.816V161.753ZM36.9153 145.655C32.4598 143.91 28.6552 140.832 26.0237 136.845C24.9005 135.108 22.4016 130.451 20.4833 126.499L17 119.375L19.7513 120.986C21.2658 121.879 24.0423 123.692 25.9228 125.039C27.8032 126.385 30.2642 128.034 31.4001 128.726C35.628 131.357 40.4364 139.01 41.2946 144.51C41.7237 147.279 41.5344 147.329 36.9153 145.655ZM40.9917 138.229C39.4296 133.41 39.4296 128.222 40.9917 123.402C42.2538 119.261 49.7504 106.826 49.7252 108.94C49.6242 115.888 48.4631 129.834 47.7816 132.011C46.6331 135.787 44.8663 139.173 43.4401 140.495C42.2412 141.565 42.2412 141.527 40.9791 138.229H40.9917ZM30.2895 119.035C24.9383 115.435 21.922 109.356 20.193 98.7202C19.8856 96.51 19.4643 94.3171 18.931 92.1501C18.6028 91.269 19.0067 91.4326 20.6221 92.8046C21.7832 93.7863 23.3734 95.045 24.1559 95.6113C26.68 97.3483 32.8893 106.939 34.0378 110.627C35.2998 114.869 35.5018 121.187 34.3154 121.187C32.8732 120.674 31.5162 119.949 30.2895 119.035V119.035ZM36.5367 113.811C36.2839 111.456 36.4722 109.075 37.092 106.788C38.7074 100.268 40.4995 97.3105 46.1914 91.6844C47.8368 89.9553 49.5948 88.3365 51.4542 86.8386C51.4542 87.0022 51.0377 88.5377 50.5203 90.2369C47.6806 99.6768 45.9011 104.85 44.841 106.75C43.2256 109.658 37.8744 116.945 37.3444 116.945C36.8377 115.976 36.5613 114.904 36.5367 113.811V113.811ZM32.3971 94.3653C27.7275 91.4704 25.8344 85.0135 26.6043 74.3276C26.8567 70.6901 27.0586 66.8512 27.0712 65.8065C27.0712 63.9689 27.147 64.0067 29.0779 67.3043C29.9249 68.7965 30.8648 70.2341 31.8923 71.6089C33.0912 72.9682 35.4008 78.6196 36.2464 82.2571C36.9658 85.896 36.7575 89.6569 35.6406 93.1947C34.9465 95.8379 34.8329 95.8757 32.3971 94.3653ZM38.0133 90.3754C38.0133 85.3408 40.916 79.7901 45.9264 75.2716C48.0466 73.371 58.2946 67.405 59.443 67.405C59.6197 67.405 58.9256 68.4119 57.9159 69.6454C56.9063 70.8789 54.4831 74.315 52.5522 77.2728C48.6777 83.1885 44.8536 87.5056 41.1179 90.1614C38.1395 92.2885 38.0133 92.3011 38.0133 90.3754V90.3754ZM38.7705 70.237C34.9843 63.6668 35.1358 59.4126 39.6161 45.8947L41.282 40.8601L43.2508 47.0401C44.5601 50.4602 45.2316 54.0902 45.2322 57.7512C45.2322 62.7858 43.6421 68.0092 41.282 70.8034L40.02 72.3515L38.7705 70.237ZM44.7653 67.8581C46.7846 61.3635 55.1015 55.1584 64.9582 52.7543C70.7763 51.3572 71.1802 51.5712 67.7221 54.227C66.0184 55.4856 63.6962 57.4994 62.5477 58.5945C57.6509 63.2766 48.0971 69.1545 45.3711 69.1671C44.5886 69.2049 44.4498 68.9154 44.7653 67.8581ZM49.8135 49.3308C48.9209 45.106 49.3618 40.7092 51.0756 36.7443C52.5948 34.0196 54.3516 31.4336 56.3257 29.0162L60.1119 24.3592L60.5158 28.261C61.4118 36.8198 59.3547 43.9312 54.6093 48.7518C53.5392 49.9686 52.2979 51.0242 50.9241 51.8859C50.596 51.8859 50.0912 50.7405 49.7883 49.3686L49.8135 49.3308ZM58.5596 47.0527C63.6078 42.2194 68.5551 40.5077 77.6545 40.5329C84.091 40.5329 85.2269 41.1622 81.4407 42.597C79.8884 43.1886 76.5187 44.7367 73.9441 46.0457C69.1796 48.5347 63.9105 49.9119 58.5343 50.0734H55.4297L58.5596 47.0527ZM74.7013 36.9835C73.8204 36.8519 72.9674 36.5754 72.1772 36.1653C71.5209 35.4983 73.1237 34.1263 76.241 32.7292C80.9107 30.6273 88.1675 30.7657 94.9321 33.0691C97.7465 34.0256 100.043 35.0326 100.043 35.2843C100.043 35.536 99.0591 35.7626 97.8601 35.7752C96.6611 35.7877 92.8119 36.1653 89.2276 36.6562C82.3115 37.5624 78.2351 37.6631 74.7013 36.9583V36.9835ZM66.4096 34.8312C65.1475 29.6204 68.9337 23.1509 76.3672 18.0408C78.2603 16.7821 80.3806 15.3473 81.0747 14.9823L82.3368 14.3026L81.3019 18.4436C79.8379 24.2711 78.1846 27.4429 74.7897 31.0301C72.3918 33.5474 68.2143 36.4548 67.0532 36.4548C66.9018 36.3416 66.6115 35.6367 66.4096 34.8312ZM85.1512 24.2334C86.4132 18.4562 89.3791 16.0647 98.5668 13.6481C100.826 13.0565 103.148 12.3895 103.754 12.1126C105.798 11.2567 103.135 15.2969 98.5795 19.9539C94.2127 24.4221 90.7799 26.1843 86.4258 26.1843C84.7852 26.1843 84.7221 26.0836 85.1512 24.2334Z" fill="#39312A"/>
<path d="M166.477 198.985L164.659 197.298L166.161 196.606C171.79 193.975 180.498 193.472 189.194 195.234C192.311 195.876 196.766 196.732 199.164 197.134L203.455 197.877L200.931 198.607C199.53 199.01 195.757 200.143 192.538 201.124C182.328 204.284 171.399 203.377 166.477 198.985ZM167.146 191.521C167.663 186.939 169.316 184.472 177.444 176.266L185.319 168.311L184.953 170.829C184.488 173.329 183.877 175.8 183.123 178.23C180.738 186.084 176.27 191.307 169.947 193.61C167.398 194.605 166.855 194.189 167.184 191.521H167.146ZM188.828 187.745L186.72 186.851L189.005 184.8C190.887 183.276 192.926 181.955 195.088 180.86L199.808 178.494C201.663 177.537 222.752 175.196 223.635 175.838C221.617 177.521 219.511 179.097 217.325 180.558C210.876 185.114 209.134 185.995 202.395 188.11C197.947 189.393 193.211 189.283 188.828 187.795V187.745ZM188.954 182.622L188.424 180.42C187.301 175.75 189.585 167.468 193.674 161.364C194.52 160.105 196.198 157.198 197.334 154.894L199.48 150.715L199.656 158.481C199.809 162.122 199.649 165.768 199.177 169.381C198.407 173.056 195.1 177.877 191.428 180.709L188.954 182.622ZM208.831 169.86C208.104 169.708 207.365 169.619 206.623 169.595C205.676 169.595 205.651 169.444 206.459 167.871C208.709 164.18 211.578 160.902 214.94 158.179C219.182 155.196 223.921 152.984 228.936 151.647C230.8 151.269 232.635 150.761 234.426 150.124C237.531 148.865 237.657 149.016 235.688 151.206C234.716 152.276 232.76 154.743 231.334 156.669C227.933 160.942 223.811 164.592 219.155 167.456C217.371 168.256 215.51 168.876 213.602 169.306C212.045 169.71 210.44 169.897 208.831 169.86V169.86ZM206.169 163.881C205.159 163.252 203.859 157.374 203.872 153.497C204.143 149.341 204.828 145.222 205.916 141.2C206.795 137.855 207.49 134.464 207.999 131.043C207.999 129.281 208.074 129.281 209.185 131.748C210.992 137.042 212.144 142.537 212.618 148.11C212.478 150.402 212.158 152.678 211.659 154.919C211.314 157.442 210.284 159.823 208.68 161.804C207.569 163.138 206.459 164.07 206.169 163.881ZM219.875 144.51C220.733 139.01 225.541 131.357 229.769 128.727C230.905 128.035 233.366 126.373 235.246 125.039C237.127 123.705 239.903 121.88 241.418 120.986L244.169 119.375L240.686 126.562C238.768 130.514 236.269 135.171 235.145 136.908C232.514 140.896 228.709 143.974 224.254 145.719C219.635 147.33 219.445 147.279 219.875 144.51ZM217.779 140.558C216.353 139.3 214.586 135.788 213.438 132.075C212.756 129.897 211.595 115.952 211.494 109.004C211.494 106.889 218.978 119.325 220.228 123.466C221.79 128.285 221.79 133.473 220.228 138.293C218.928 141.527 218.928 141.565 217.779 140.558ZM226.879 121.251C225.693 121.251 225.857 114.957 227.157 110.69C228.305 106.914 234.577 97.4117 237.039 95.6748C237.821 95.1084 239.411 93.8497 240.572 92.868C242.188 91.4961 242.592 91.3324 242.263 92.2135C241.73 94.3805 241.309 96.5734 241.001 98.7836C239.285 109.419 236.269 115.498 230.905 119.098C229.674 119.99 228.317 120.694 226.879 121.188V121.251ZM223.825 117.072C223.295 117.072 217.944 109.784 216.328 106.877C215.268 104.976 213.488 99.8031 210.649 90.3633C210.131 88.6641 209.715 87.1285 209.715 86.9649C211.574 88.4628 213.332 90.0816 214.978 91.8107C220.67 97.3739 222.462 100.332 224.077 106.914C224.697 109.201 224.885 111.583 224.632 113.938C224.598 115.009 224.322 116.059 223.825 117.009V117.072ZM225.529 93.2582C224.412 89.7203 224.203 85.9595 224.923 82.3205C225.768 78.683 228.078 73.0317 229.277 71.6723C230.304 70.2976 231.244 68.8599 232.091 67.3678C234.073 64.0072 234.073 63.9694 234.073 65.807C234.073 66.8517 234.287 70.6906 234.54 74.3281C235.335 85.014 233.442 91.4709 228.772 94.3658C226.336 95.8762 226.223 95.8384 225.529 93.1952V93.2582ZM220.051 90.2122C216.265 87.5565 212.479 83.2393 208.617 77.3237C206.686 74.3659 204.263 70.9297 203.253 69.6963C202.244 68.4628 201.549 67.4559 201.726 67.4559C202.875 67.4559 213.085 73.4219 215.243 75.3224C220.291 79.841 223.156 85.3916 223.156 90.4262C223.156 92.3016 223.03 92.289 220.051 90.2122ZM221.2 72.4024L219.938 70.8542C217.578 68.06 216 62.824 215.987 57.802C215.988 54.1411 216.659 50.5111 217.969 47.0909L219.938 40.9739L221.604 46.0085C226.084 59.5264 226.235 63.7806 222.449 70.3508L221.2 72.4024ZM215.748 69.2431C213.022 69.2431 203.468 63.3527 198.571 58.6705C197.422 57.5755 195.1 55.612 193.397 54.303C189.938 51.6472 190.342 51.4333 196.16 52.8304C206.055 55.2092 214.372 61.4144 216.353 67.9342C216.719 68.9159 216.581 69.2054 215.748 69.1928V69.2431ZM211.356 49.3313C211.053 50.7284 210.548 51.8486 210.22 51.8486C208.846 50.987 207.605 49.9313 206.535 48.7146C201.789 43.894 199.732 36.7826 200.628 28.2238L201.032 24.322L204.818 28.979C206.802 31.4033 208.568 33.9978 210.094 36.7322C211.807 40.6971 212.248 45.0939 211.356 49.3187V49.3313ZM205.739 50.0865H202.61C197.233 49.925 191.964 48.5478 187.2 46.0588C184.676 44.8002 181.256 43.2017 179.703 42.6101C175.917 41.1753 177.078 40.5585 183.489 40.546C192.589 40.546 197.587 42.2325 202.584 47.0658L205.739 50.0865ZM171.992 36.6316C168.458 36.1407 164.571 35.7505 163.36 35.7505C162.148 35.7505 161.176 35.5239 161.176 35.2596C161.176 34.9953 163.473 34.001 166.224 33.0444C172.989 30.7411 180.246 30.6026 184.915 32.7046C188.033 34.1017 189.636 35.4736 188.979 36.1407C188.189 36.5508 187.336 36.8272 186.455 36.9588C182.934 37.6636 178.858 37.563 171.992 36.6316ZM194.129 36.3421C192.967 36.3421 188.79 33.4094 186.392 30.9173C182.997 27.3931 181.344 24.2213 179.88 18.3937L178.845 14.2528L180.107 14.9324C180.801 15.2975 182.921 16.682 184.815 17.991C192.223 23.1011 196.059 29.5705 194.772 34.7813C194.558 35.6372 194.267 36.3421 194.129 36.3421ZM174.756 26.1848C170.402 26.1848 166.969 24.4227 162.602 19.9545C158.236 15.4863 155.383 11.2572 157.428 12.1131C158.034 12.3648 160.356 13.0571 162.615 13.6486C171.803 16.0652 174.819 18.4567 176.031 24.2339C176.447 26.0841 176.384 26.1848 174.756 26.1848Z" fill="#39312A"/>
<path d="M104.84 194.076L107.667 193.296H108.02V202.346H109.005V202.635H105.446V202.346H106.43V194.064L104.928 194.416L104.84 194.076Z" fill="#39312A"/>
<path d="M119.82 196.279C119.822 196.016 119.856 195.754 119.921 195.499C119.988 195.22 120.094 194.953 120.237 194.706C120.386 194.438 120.578 194.195 120.805 193.988C121.055 193.77 121.347 193.603 121.663 193.497C122.044 193.362 122.445 193.294 122.849 193.296C123.2 193.292 123.549 193.343 123.884 193.447C124.158 193.534 124.417 193.661 124.654 193.825C124.862 193.991 125.041 194.191 125.184 194.416C125.328 194.635 125.442 194.872 125.525 195.121C125.619 195.382 125.686 195.652 125.727 195.926C125.727 196.229 125.802 196.493 125.815 196.732C125.828 196.971 125.815 197.223 125.815 197.525C125.901 198.921 125.627 200.317 125.02 201.578C124.768 202.016 124.398 202.374 123.952 202.612C123.505 202.85 123.001 202.959 122.496 202.925C122.159 202.931 121.823 202.889 121.499 202.799C121.259 202.728 121.033 202.618 120.83 202.471C120.681 202.346 120.553 202.197 120.451 202.031C120.285 201.787 120.2 201.496 120.211 201.2C120.206 200.954 120.286 200.714 120.439 200.521C120.525 200.42 120.635 200.342 120.757 200.292C120.88 200.241 121.013 200.221 121.145 200.231C121.256 200.226 121.366 200.245 121.468 200.286C121.57 200.328 121.663 200.39 121.739 200.47C121.82 200.553 121.884 200.651 121.925 200.76C121.967 200.868 121.985 200.984 121.978 201.1C121.983 201.213 121.964 201.327 121.923 201.433C121.881 201.539 121.819 201.635 121.739 201.716C121.579 201.89 121.357 201.994 121.12 202.006V202.006C121.218 202.18 121.375 202.314 121.562 202.383C121.819 202.5 122.1 202.556 122.382 202.547C122.574 202.55 122.766 202.525 122.95 202.471C123.114 202.428 123.262 202.341 123.379 202.22C123.488 202.105 123.589 201.983 123.682 201.855C123.787 201.694 123.86 201.514 123.897 201.326C123.897 201.1 123.998 200.898 124.023 200.722C124.035 200.479 124.035 200.235 124.023 199.992C124.023 199.665 124.023 199.413 124.023 199.212C124.023 199.01 124.023 198.721 124.023 198.33C123.849 198.596 123.61 198.813 123.329 198.96C123.015 199.114 122.669 199.192 122.319 199.186C121.887 199.2 121.457 199.123 121.057 198.96C120.727 198.817 120.44 198.592 120.224 198.305C120.024 198.022 119.875 197.707 119.782 197.374C119.744 197.009 119.757 196.64 119.82 196.279V196.279ZM121.537 196.153C121.537 196.417 121.537 196.631 121.537 196.808C121.525 197.009 121.525 197.21 121.537 197.412C121.552 197.601 121.595 197.788 121.663 197.965C121.719 198.111 121.791 198.25 121.877 198.381C121.964 198.51 122.087 198.61 122.231 198.67C122.39 198.738 122.562 198.772 122.736 198.771C123.054 198.753 123.358 198.634 123.605 198.433C123.852 198.232 124.029 197.958 124.111 197.651V197.198C124.116 196.613 124.082 196.029 124.01 195.448C123.973 195.071 123.88 194.702 123.733 194.353C123.645 194.149 123.511 193.968 123.341 193.825C123.198 193.723 123.025 193.67 122.849 193.673C122.626 193.669 122.407 193.733 122.222 193.857C122.037 193.981 121.895 194.158 121.814 194.366C121.588 194.933 121.493 195.544 121.537 196.153V196.153Z" fill="#39312A"/>
<path d="M149.768 198.242C149.764 197.732 149.807 197.222 149.894 196.719C149.989 196.258 150.128 195.807 150.31 195.372C150.483 194.974 150.717 194.604 151.005 194.277C151.277 193.97 151.613 193.725 151.989 193.56C152.385 193.379 152.816 193.289 153.251 193.296C153.755 193.272 154.258 193.374 154.712 193.594C155.166 193.814 155.558 194.144 155.851 194.554C156.516 195.55 156.839 196.733 156.772 197.927C156.774 198.421 156.736 198.913 156.659 199.4C156.587 199.865 156.464 200.321 156.293 200.759C156.135 201.167 155.918 201.548 155.649 201.892C155.377 202.214 155.036 202.472 154.652 202.647C154.227 202.849 153.76 202.948 153.289 202.937C152.583 202.963 151.887 202.76 151.307 202.358C150.767 201.944 150.363 201.379 150.146 200.734C149.875 199.932 149.747 199.089 149.768 198.242V198.242ZM151.522 198.016C151.509 198.812 151.568 199.608 151.699 200.394C151.783 200.957 151.981 201.496 152.279 201.98C152.373 202.155 152.511 202.301 152.679 202.405C152.847 202.509 153.04 202.566 153.238 202.572C153.806 202.572 154.248 202.182 154.5 201.389C154.848 200.295 155.002 199.149 154.955 198.003C154.955 195.108 154.374 193.661 153.226 193.661C153.046 193.659 152.868 193.702 152.708 193.787C152.516 193.904 152.352 194.063 152.229 194.252C152.054 194.504 151.918 194.779 151.825 195.07C151.706 195.483 151.617 195.904 151.56 196.329C151.513 196.89 151.5 197.453 151.522 198.016V198.016Z" fill="#39312A"/>
<path d="M134.371 195.624C134.372 195.429 134.397 195.235 134.446 195.045C134.519 194.827 134.62 194.62 134.749 194.429C134.892 194.211 135.071 194.019 135.279 193.862C135.536 193.689 135.817 193.553 136.112 193.46C136.49 193.351 136.881 193.296 137.273 193.296C138.005 193.264 138.726 193.482 139.318 193.913C139.568 194.107 139.768 194.358 139.901 194.645C140.035 194.931 140.099 195.246 140.088 195.562C140.087 196.171 139.917 196.768 139.596 197.286C139.092 198.031 138.499 198.712 137.829 199.312C136.327 200.747 135.481 201.553 135.305 201.716H137.967C138.215 201.732 138.464 201.732 138.712 201.716C138.891 201.701 139.068 201.672 139.242 201.628C139.386 201.594 139.517 201.52 139.621 201.414C139.708 201.314 139.776 201.199 139.823 201.074C139.882 200.904 139.916 200.726 139.924 200.546H140.29V202.988H134.535V202.044C135.044 201.596 135.528 201.121 135.986 200.621C136.434 200.15 136.855 199.654 137.248 199.136C137.485 198.813 137.696 198.472 137.879 198.117C138.033 197.809 138.148 197.484 138.22 197.147C138.283 196.895 138.329 196.638 138.359 196.38C138.372 196.137 138.372 195.893 138.359 195.65C138.4 195.144 138.262 194.641 137.967 194.227C137.831 194.073 137.661 193.951 137.471 193.871C137.281 193.79 137.076 193.753 136.869 193.762C136.655 193.762 136.442 193.796 136.238 193.862C136.062 193.917 135.899 194.007 135.759 194.127C135.638 194.215 135.532 194.321 135.443 194.441C135.365 194.527 135.309 194.631 135.279 194.743V194.743H135.431C135.56 194.737 135.688 194.758 135.808 194.806C135.928 194.854 136.036 194.927 136.125 195.02C136.214 195.111 136.284 195.22 136.329 195.339C136.375 195.458 136.396 195.585 136.39 195.713C136.395 195.965 136.3 196.209 136.125 196.392C135.933 196.571 135.681 196.67 135.418 196.67C135.156 196.67 134.903 196.571 134.711 196.392C134.6 196.298 134.512 196.18 134.453 196.047C134.394 195.914 134.366 195.77 134.371 195.624V195.624Z" fill="#39312A"/>
</svg>
